<?xml version="1.0" encoding="UTF-8"?>
<svg id="Layer_1" data-name="Layer 1" xmlns="http://www.w3.org/2000/svg" viewBox="0 0 336.54 403.59">
  <defs>
    <style>
      .cls-1 {
        stroke-width: 0px;
      }

      .cls-2 {
        fill: #d8f103;
        stroke: #6f1d77;
        stroke-miterlimit: 10;
        stroke-width: 2px;
      }

      .cls-3 {
        opacity: .3;
      }
    </style>
  </defs>
  <g>
    <g>
      <path class="cls-2" d="M134.69,86.24l26.15-17.31c.95-.63,2.17-.72,3.2-.24l41.64,19.4c1.65.77,1.91,3,.49,4.14l-24.95,19.88c-1.51,1.2-3.58,1.41-5.3.54l-40.92-20.82c-2.21-1.13-2.39-4.22-.32-5.59Z"/>
      <path class="cls-2" d="M178.43,113.92c-.96.05-1.94-.15-2.83-.61l-40.92-20.82c-1.28-.65-2.09-1.89-2.17-3.32-.08-1.43.58-2.76,1.78-3.55l26.15-17.31c1.16-.77,2.66-.88,3.92-.29l41.64,19.4c1.01.47,1.69,1.41,1.82,2.52.13,1.11-.31,2.18-1.18,2.87l-24.95,19.88c-.95.76-2.1,1.17-3.26,1.23ZM135.1,86.86c-.75.5-1.17,1.33-1.11,2.23.05.9.56,1.68,1.36,2.08l40.92,20.82c1.45.74,3.22.56,4.5-.46l24.95-19.88c.47-.37.7-.95.63-1.54s-.43-1.09-.97-1.35l-41.64-19.4c-.8-.37-1.75-.3-2.48.18l-26.15,17.31Z"/>
    </g>
    <path class="cls-2" d="M183.63,119.45l-.35,6.75-.04.76-.61,11.81-2.73,18.7-1.57-1.66-4.04-28.45-.1-.75-.89-6.29,2.83,1.44c1.72.87,3.79.66,5.3-.54l2.21-1.76Z"/>
    <path class="cls-2" d="M224.91,99.07c.63,1.86,1.55,3.68,2.75,5.42l-19.83,1.5-.61-13.13,35.41,2.07-18.29,2.47.56,1.68Z"/>
    <path class="cls-2" d="M224.91,99.07c.63,1.86,1.55,3.68,2.75,5.42l-19.83,1.5-.61-13.13,35.41,2.07-18.29,2.47.56,1.68Z"/>
    <polygon class="cls-2" points="87.51 105.64 62.24 105.99 62.04 101.84 66.6 101.2 66.6 101.2 70.53 102.03 87.51 105.64"/>
    <polygon class="cls-2" points="87.51 105.64 62.24 105.99 62.04 101.84 66.6 101.2 66.6 101.2 70.53 102.03 87.51 105.64"/>
    <path class="cls-2" d="M133.37,91.76l.62,13.22-24.59.35c1.85-3.36,2.72-6.83,2.61-10.34,0-.08,0-.15,0-.21l21.36-3.02Z"/>
    <path class="cls-2" d="M133.37,91.76l.62,13.22-24.59.35c1.85-3.36,2.72-6.83,2.61-10.34,0-.08,0-.15,0-.21l21.36-3.02Z"/>
    <path class="cls-2" d="M166.78,69.97l-8.74.82.4-7.31s.07,0,.11,0c1.06-.02,5.92-.25,7.19-.37.02,0,.05,0,.07,0l.97,6.87Z"/>
    <path class="cls-2" d="M280.46,91.29l4.46-30.5c-1.94-.02-3.9,0-5.89.1-8.47.4-16.45,1.84-23.53,4.06l24.97,26.34h0Z"/>
    <path class="cls-2" d="M276.01,121.8c1.94.02,3.9,0,5.89-.1,8.47-.4,16.45-1.84,23.53-4.06l-24.97-26.34-4.46,30.5Z"/>
    <path class="cls-2" d="M334.62,83.98l-54.16,7.31h0l50.37,10.67c3.21-4.11,4.9-8.61,4.68-13.27-.08-1.61-.38-3.19-.9-4.71Z"/>
    <path class="cls-2" d="M280.46,91.29l-34.84,24.72c-10.99-4.61-17.16-10.98-19.32-17.41l54.16-7.31Z"/>
    <path class="cls-2" d="M179.18,129.88c-.96.05-1.94-.15-2.83-.61l-40.92-20.82c-1.28-.65-2.09-1.89-2.17-3.32v-.12s-.75-15.88-.75-15.88l1.48-.07.75,15.99c.05.89.56,1.67,1.36,2.08l40.92,20.82c1.45.74,3.22.56,4.5-.46l24.95-19.88c.47-.37.7-.95.63-1.54l1.47-.18c.13,1.11-.31,2.18-1.18,2.87l-24.95,19.88c-.95.76-2.1,1.17-3.26,1.23Z"/>
    <rect class="cls-2" x="206.73" y="90.19" width="1.48" height="15.9" transform="translate(-4.39 9.88) rotate(-2.7)"/>
    <rect class="cls-2" x="182.88" y="110.64" width="1.48" height="15.9" transform="translate(-5.38 8.78) rotate(-2.7)"/>
    <rect class="cls-2" x="172.57" y="111.11" width="1.48" height="16.18" transform="translate(-5.42 8.29) rotate(-2.7)"/>
    <path class="cls-2" d="M281,95.58c3.33-.16,6.02-1.25,7.21-2.77l.53,11.18c.09,1.96-3.12,3.69-7.16,3.89-4.05.19-7.4-1.24-7.49-3.19l-.53-11.18c1.33,1.4,4.11,2.24,7.44,2.08Z"/>
    <path class="cls-2" d="M280.63,87.73c-4.05.19-7.25,1.93-7.16,3.89.09,1.96,3.44,3.39,7.49,3.2s7.25-1.93,7.16-3.89c-.09-1.96-3.45-3.39-7.49-3.2ZM280.93,94.07c-3.88.18-6.65-1.16-6.71-2.48s2.57-2.92,6.44-3.1,6.65,1.16,6.71,2.48c.06,1.32-2.57,2.92-6.44,3.1Z"/>
    <path class="cls-2" d="M160.24,31.51l4.46-30.5c-1.94-.02-3.9,0-5.89.1-8.47.4-16.45,1.84-23.53,4.06l24.97,26.34h0Z"/>
    <path class="cls-2" d="M185.2,57.84c-12.69,4-25.55,4.21-29.42,4.17l4.46-30.51,24.96,26.34Z"/>
    <path class="cls-2" d="M214.4,24.2l-54.16,7.31h0l50.37,10.67c3.21-4.11,4.9-8.61,4.68-13.27-.08-1.61-.38-3.19-.9-4.71Z"/>
    <path class="cls-2" d="M160.24,31.51l-7.6,5.38-6.92,4.92-20.33,14.42c-7.11-2.98-12.74-6.97-16.25-11.65-1.36-1.82-2.4-3.74-3.07-5.76l23.99-3.24,30.17-4.07Z"/>
    <path class="cls-2" d="M160.78,35.79c3.33-.16,6.02-1.25,7.21-2.77l.53,11.18c.09,1.96-3.12,3.69-7.16,3.89-4.05.19-7.4-1.24-7.49-3.19l-.53-11.18c1.33,1.4,4.11,2.24,7.44,2.08Z"/>
    <path class="cls-2" d="M160.41,27.95c-4.05.19-7.25,1.93-7.16,3.89.09,1.96,3.44,3.39,7.49,3.2,4.04-.19,7.25-1.93,7.16-3.89-.09-1.96-3.45-3.39-7.49-3.2ZM160.71,34.29c-3.88.18-6.65-1.16-6.71-2.48-.06-1.32,2.57-2.92,6.44-3.1s6.65,1.16,6.71,2.48-2.57,2.92-6.44,3.1Z"/>
    <path class="cls-2" d="M55.49,97.35l4.46-30.5c-1.94-.02-3.9,0-5.89.1-8.47.4-16.45,1.84-23.53,4.06l24.97,26.34h0Z"/>
    <path class="cls-2" d="M51.04,127.85c1.94.02,3.9,0,5.89-.1,8.47-.4,16.45-1.84,23.53-4.06l-24.97-26.34-4.46,30.5Z"/>
    <path class="cls-2" d="M105.86,108.02l-50.37-10.68,54.16-7.31c2.94,8.79-3.15,17.17-3.79,17.98Z"/>
    <path class="cls-2" d="M55.49,97.35l-7.6,5.38-6.92,4.92-20.33,14.42c-7.11-2.98-12.74-6.97-16.25-11.65-1.36-1.82-2.4-3.74-3.07-5.76l23.99-3.24,30.17-4.07Z"/>
    <path class="cls-2" d="M56.03,101.63c3.33-.16,6.02-1.25,7.21-2.77l.53,11.18c.09,1.96-3.12,3.69-7.16,3.89-4.05.19-7.4-1.24-7.49-3.19l-.53-11.18c1.33,1.4,4.11,2.24,7.44,2.08Z"/>
    <path class="cls-2" d="M55.66,93.79c-4.05.19-7.25,1.93-7.16,3.89.09,1.96,3.44,3.39,7.49,3.2,4.04-.19,7.25-1.93,7.16-3.89-.09-1.96-3.45-3.39-7.49-3.2ZM55.96,100.13c-3.88.18-6.65-1.16-6.71-2.48-.06-1.32,2.57-2.92,6.44-3.1s6.65,1.16,6.71,2.48-2.57,2.92-6.44,3.1Z"/>
    <path class="cls-2" d="M189.17,128.03l-3.55,11.39-5.62,18.04-1.29-1.89-19.25-28.02c6.12-.91,12.77-1.19,19.71-.71,1.38.09,2.77.21,4.17.37,1.6.18,3.18.39,4.74.64.37.06.73.12,1.09.18Z"/>
    <path class="cls-2" d="M175.44,187.96c1.94.02,3.9,0,5.89-.1,8.47-.4,16.45-1.84,23.53-4.06l-24.97-26.34-4.46,30.5Z"/>
    <path class="cls-2" d="M234.06,150.15l-54.16,7.31h0l50.37,10.67c3.21-4.11,4.9-8.61,4.68-13.27-.08-1.61-.38-3.19-.9-4.71Z"/>
    <path class="cls-2" d="M179.9,157.46l-7.6,5.38-6.92,4.92-20.33,14.42c-7.11-2.98-12.74-6.97-16.25-11.65-1.36-1.82-2.4-3.74-3.07-5.76l23.99-3.24,30.17-4.07Z"/>
    <path class="cls-2" d="M180.44,161.74c3.33-.16,6.02-1.25,7.21-2.77l.53,11.18c.09,1.96-3.12,3.69-7.16,3.89-4.05.19-7.4-1.24-7.49-3.19l-.53-11.18c1.33,1.4,4.11,2.24,7.44,2.08Z"/>
    <path class="cls-2" d="M180.07,153.9c-4.05.19-7.25,1.93-7.16,3.89.09,1.96,3.44,3.39,7.49,3.2,4.04-.19,7.25-1.93,7.16-3.89-.09-1.96-3.45-3.39-7.49-3.2ZM180.37,160.24c-3.88.18-6.65-1.16-6.71-2.48-.06-1.32,2.57-2.92,6.44-3.1,3.88-.18,6.65,1.16,6.71,2.48.06,1.32-2.57,2.92-6.44,3.1Z"/>
  </g>
  <g class="cls-3">
    <g>
      <path class="cls-1" d="M134.66,301.84c32.69-28.06,37.83-11.78,70.99,1.85,6.3,3.23-27.08,27.65-29.75,24.56-1.23-3.13-50.7-19.84-41.24-26.41Z"/>
      <path class="cls-1" d="M178.4,329.52c-2.78-2.42-54.19-20.01-44.15-28.29,33.07-28.32,38.17-12.04,71.72,1.8,8.12,5.12-24.96,24.84-27.57,26.49ZM135.07,302.46c-7.86,4.95,40.54,22.81,41.16,25.13,3.97,2.64,28.28-19.24,30.08-21.88-36.93-17.01-36.26-30.8-71.25-3.25Z"/>
    </g>
    <path class="cls-1" d="M183.6,335.04c-1.07,7-.29,37.44-5.3,36.35-.73-5.28-4.38-30.79-5.03-35.5,3.45,2.56,7.45,2.47,10.34-.86Z"/>
    <path class="cls-1" d="M251.26,314.46c9.51,9.84-39.9,4.98-43.45,7.13,0,0-.61-13.14-.61-13.14l35.41,2.07c-.33.97,4.75.57,8.65,3.94Z"/>
    <path class="cls-1" d="M87.48,321.23l-25.27.35c-2.35-10.74,19.94.09,25.27-.35Z"/>
    <path class="cls-1" d="M87.48,321.23l-25.27.35c-2.35-10.74,19.94.09,25.27-.35Z"/>
    <path class="cls-1" d="M133.34,307.36c4.88,20.84-11.41,11.34-23.97,13.57,1.08-13.67,13.32-11.91,23.97-13.57Z"/>
    <path class="cls-1" d="M133.34,307.36c4.88,20.84-11.41,11.34-23.97,13.57,1.08-13.67,13.32-11.91,23.97-13.57Z"/>
    <path class="cls-1" d="M166.76,286.86c-7.04.82-10.01-5.19-8.36-13.94,5.9-1.05,8.6,7.44,8.36,13.94Z"/>
    <path class="cls-1" d="M280.43,306.89s0,0,0,0c0,0,0,0,0,0Z"/>
    <path class="cls-1" d="M280.43,306.89c5.72-28.64,7.56-36.53-24.97-26.33,0,0,24.97,26.33,24.97,26.33Z"/>
    <path class="cls-1" d="M280.43,306.89s0,0,0,0c0,0,0,0,0,0Z"/>
    <path class="cls-1" d="M275.98,337.4c43.37.69,22.07-11.09,4.45-30.5,0,0-4.45,30.5-4.45,30.5Z"/>
    <path class="cls-1" d="M334.59,299.58s-55.18,7.44-54.14,7.31c12.18-.64,66.13,25.23,54.14-7.31Z"/>
    <path class="cls-1" d="M280.43,306.89c-15.36,11.15-43.91,38.45-54.16,7.3,0,0,54.16-7.3,54.16-7.3Z"/>
    <path class="cls-1" d="M179.15,345.48c-2.65-.74-29.83-13.02-41.08-20.33-2.78-1.8-4.57-4.78-4.9-8.07-.52-5.19-2.08-12.06.78-12.42,18.83-2.33,32.84-8.65,46.61.95,3.99,2.62,34.44-15.87,26.51,16.07-1.74,6.99-27.3,24.72-27.92,23.8Z"/>
    <path class="cls-1" d="M208.56,321.65c-3.09,2.4-1.49-15.39-2.23-15.81,3.09-2.4,1.49,15.39,2.23,15.81Z"/>
    <path class="cls-1" d="M184.71,342.09c-3.09,2.4-1.49-15.39-2.23-15.81,3.09-2.4,1.49,15.39,2.23,15.81Z"/>
    <path class="cls-1" d="M174.4,342.85c-3.09,2.41-1.5-15.68-2.25-16.09,3.09-2.41,1.5,15.68,2.25,16.09Z"/>
    <path class="cls-1" d="M280.97,311.18c3.33-.16,6.02-1.25,7.21-2.77-.42,5.79,3.93,15.44-6.63,15.07-10.47,1.38-7.08-8.67-8.02-14.38,1.33,1.4,4.11,2.24,7.44,2.08Z"/>
    <path class="cls-1" d="M280.6,304.33c-9.51.37-9.17,7.62.33,7.09,9.51-.37,9.17-7.62-.33-7.09Z"/>
    <path class="cls-1" d="M160.21,247.11s0,0,0,0c0,0,0,0,0,0Z"/>
    <path class="cls-1" d="M160.21,247.11c5.72-28.64,7.56-36.53-24.97-26.33,0,0,24.97,26.33,24.97,26.33Z"/>
    <path class="cls-1" d="M160.21,247.11s0,0,0,0c0,0,0,0,0,0Z"/>
    <path class="cls-1" d="M185.17,273.44c-37.51,11.53-28.34-1.02-24.96-26.34,0,0,24.96,26.34,24.96,26.34Z"/>
    <path class="cls-1" d="M214.37,239.8s-55.18,7.44-54.14,7.31c12.18-.64,66.13,25.23,54.14-7.31Z"/>
    <path class="cls-1" d="M160.21,247.11c-17.85,11.66-41.17,39.21-54.16,7.31,13.2-1.78,40.83-5.5,54.16-7.31Z"/>
    <path class="cls-1" d="M160.75,251.39c3.33-.16,6.02-1.25,7.21-2.77-.42,5.79,3.93,15.44-6.63,15.07-10.47,1.38-7.08-8.67-8.02-14.38,1.33,1.4,4.11,2.24,7.44,2.08Z"/>
    <path class="cls-1" d="M160.38,244.55c-9.51.37-9.17,7.62.33,7.09,9.51-.37,9.17-7.62-.33-7.09Z"/>
    <path class="cls-1" d="M55.46,312.95s0,0,0,0c0,0,0,0,0,0Z"/>
    <path class="cls-1" d="M55.46,312.95c5.72-28.64,7.56-36.53-24.97-26.33,0,0,24.97,26.33,24.97,26.33Z"/>
    <path class="cls-1" d="M55.46,312.95s0,0,0,0c0,0,0,0,0,0Z"/>
    <path class="cls-1" d="M51,343.45c43.37.69,22.07-11.09,4.45-30.5,0,0-4.45,30.5-4.45,30.5Z"/>
    <path class="cls-1" d="M110.66,328.14l-50.37-10.68c10.23,3.73,74.67-24.46,50.37,10.68Z"/>
    <path class="cls-1" d="M55.46,312.95c-17.85,11.66-41.17,39.21-54.16,7.31,13.2-1.78,40.83-5.5,54.16-7.31Z"/>
    <path class="cls-1" d="M56,317.23c3.33-.16,6.02-1.25,7.21-2.77-.42,5.79,3.93,15.44-6.63,15.07-10.47,1.38-7.08-8.67-8.02-14.38,1.33,1.4,4.11,2.24,7.44,2.08Z"/>
    <path class="cls-1" d="M55.63,310.39c-9.51.37-9.17,7.62.33,7.09,9.51-.37,9.17-7.62-.33-7.09Z"/>
    <path class="cls-1" d="M179.87,373.06s0,0,0,0c0,0,0,0,0,0Z"/>
    <path class="cls-1" d="M189.14,343.63c-2.57,4.17-6.93,31.06-10.46,27.54-15.7-22.34-29.19-34.33,10.46-27.54Z"/>
    <path class="cls-1" d="M179.87,373.06s0,0,0,0c0,0,0,0,0,0Z"/>
    <path class="cls-1" d="M175.41,403.56c43.37.69,22.07-11.09,4.45-30.5,0,0-4.45,30.5-4.45,30.5Z"/>
    <path class="cls-1" d="M234.03,365.75s-55.18,7.44-54.14,7.31c12.18-.64,66.13,25.23,54.14-7.31Z"/>
    <path class="cls-1" d="M179.87,373.06c-17.85,11.66-41.17,39.21-54.16,7.31,13.2-1.78,40.83-5.5,54.16-7.31Z"/>
    <path class="cls-1" d="M180.41,377.34c3.33-.16,6.02-1.25,7.21-2.77-.42,5.79,3.93,15.44-6.63,15.07-10.47,1.38-7.08-8.67-8.02-14.38,1.33,1.4,4.11,2.24,7.44,2.08Z"/>
    <path class="cls-1" d="M180.4,370.43c-9.51.37-9.17,7.62.33,7.09,9.51-.37,9.17-7.62-.33-7.09ZM180.43,371.19c-8.6.28-8.59.52,0,0,8.6-.29,8.59-.53,0,0Z"/>
  </g>
</svg>