<svg width="110" height="118" viewBox="0 0 110 118" fill="none" xmlns="http://www.w3.org/2000/svg">
<path d="M106.615 81.955C106.615 93.0012 101.309 101.248 92.04 106.855C82.6481 112.537 69.1563 115.5 53.1147 115.5C37.0666 115.5 24.5033 112.535 16.0275 106.911C7.69653 101.384 3.11471 93.1673 3.11475 81.955C3.1148 64.9611 12.776 54.8093 24.5779 43.6885C25.2917 43.016 26.0131 42.3402 26.7397 41.6594C36.498 32.5171 47.2061 22.4851 53.2301 7.47354C55.9252 13.3298 59.699 18.5284 63.9531 23.3292C68.6415 28.6201 74.0189 33.5371 79.2546 38.3246C80.4934 39.4573 81.7243 40.5828 82.9363 41.7043C95.8095 53.6166 106.615 65.1802 106.615 81.955Z" stroke="#6F1D77" stroke-width="5"/>
</svg>
