<svg width="157" height="140" viewBox="0 0 157 140" fill="none" xmlns="http://www.w3.org/2000/svg">
<path d="M142.058 14.8872C138.376 11.1186 134.005 8.1291 129.194 6.08946C124.382 4.04981 119.226 3 114.018 3C108.81 3 103.653 4.04981 98.8415 6.08946C94.0303 8.1291 89.6589 11.1186 85.9772 14.8872L78.3364 22.7047L70.6956 14.8872C63.2588 7.27848 53.1723 3.00394 42.6551 3.00394C32.1379 3.00394 22.0515 7.27848 14.6147 14.8872C7.17794 22.4959 3 32.8156 3 43.576C3 54.3363 7.17794 64.656 14.6147 72.2647L78.3364 137.46L142.058 72.2647C145.741 68.4979 148.663 64.0255 150.657 59.103C152.651 54.1804 153.677 48.9043 153.677 43.576C153.677 38.2476 152.651 32.9715 150.657 28.049C148.663 23.1265 145.741 18.654 142.058 14.8872Z" stroke="#6F1D77" stroke-width="5" stroke-linecap="round" stroke-linejoin="round"/>
</svg>
