<svg width="158" height="162" viewBox="0 0 158 162" fill="none" xmlns="http://www.w3.org/2000/svg">
<path d="M137.197 31.1175C133.834 27.6683 129.842 24.9321 125.448 23.0653C121.054 21.1985 116.344 20.2377 111.588 20.2377C106.831 20.2377 102.121 21.1985 97.7272 23.0653C93.3331 24.9321 89.3408 27.6683 85.9783 31.1175L79 38.2725L72.0217 31.1175C65.2297 24.1536 56.0178 20.2413 46.4125 20.2413C36.8072 20.2413 27.5953 24.1536 20.8033 31.1175C14.0114 38.0814 10.1957 47.5265 10.1957 57.375C10.1957 67.2235 14.0114 76.6686 20.8033 83.6325L79 143.302L137.197 83.6325C140.561 80.1849 143.229 76.0915 145.05 71.5861C146.871 67.0808 147.808 62.2518 147.808 57.375C147.808 52.4982 146.871 47.6692 145.05 43.1638C143.229 38.6585 140.561 34.5651 137.197 31.1175Z" stroke="#1E1E1E" stroke-width="7" stroke-linecap="round" stroke-linejoin="round"/>
</svg>
