<svg width="194" height="192" viewBox="0 0 194 192" fill="none" xmlns="http://www.w3.org/2000/svg">
<path d="M59.2984 39.6772C70.3548 32.3301 83.211 28.1806 96.3624 27.7144C109.514 27.2481 122.417 30.4844 133.561 37.0444C144.705 43.6045 153.63 53.217 159.292 64.7573C164.953 76.2975 167.117 89.2881 165.529 102.209C163.942 115.13 158.669 127.447 150.327 137.718C141.986 147.99 130.922 155.791 118.428 160.21C105.935 164.628 92.5299 165.481 79.7813 162.668C67.0328 159.855 55.4682 153.493 46.4407 144.326C59.3346 143.594 71.6713 138.326 81.207 129.48C90.7427 120.635 96.8439 108.8 98.4009 96.1269C99.9579 83.4543 96.8673 70.7861 89.6913 60.4266C82.5153 50.067 71.7304 42.7042 59.2984 39.6772Z" stroke="#6F1D77" stroke-width="5" stroke-linecap="round" stroke-linejoin="round"/>
</svg>
