<svg width="167" height="162" viewBox="0 0 167 162" fill="none" xmlns="http://www.w3.org/2000/svg">
<path d="M88.9971 20.25C100.842 21.3118 112.129 25.6239 121.54 32.6818C130.95 39.7397 138.094 49.2514 142.135 60.104C146.176 70.9566 146.947 82.7011 144.358 93.9634C141.77 105.226 135.928 115.54 127.517 123.699C119.106 131.858 108.473 137.525 96.8635 140.036C85.2536 142.547 73.1466 141.799 61.9591 137.879C50.7715 133.959 40.9663 127.029 33.6905 117.901C26.4148 108.772 21.9696 97.8224 20.875 86.3325C30.2567 93.0595 41.8158 96.2965 53.4498 95.4549C65.0839 94.6133 76.0202 89.7489 84.2696 81.7465C92.519 73.7441 97.5335 63.1353 98.4011 51.8495C99.2686 40.5638 95.9317 29.3508 88.9971 20.25Z" stroke="#1E1E1E" stroke-width="8" stroke-linecap="round" stroke-linejoin="round"/>
</svg>
