<svg width="126" height="142" viewBox="0 0 126 142" fill="none" xmlns="http://www.w3.org/2000/svg">
<path d="M16.2984 14.6772C27.3548 7.33009 40.211 3.18064 53.3624 2.7144C66.5139 2.24815 79.4167 5.48438 90.5611 12.0444C101.705 18.6045 110.63 28.217 116.292 39.7573C121.953 51.2975 124.117 64.2881 122.529 77.2091C120.942 90.13 115.669 102.447 107.327 112.718C98.9862 122.99 87.9216 130.791 75.4283 135.21C62.9351 139.628 49.5299 140.481 36.7813 137.668C24.0328 134.855 12.4682 128.493 3.44067 119.326C16.3346 118.594 28.6713 113.326 38.207 104.48C47.7427 95.6349 53.8439 83.7996 55.4009 71.1269C56.9579 58.4543 53.8673 45.7861 46.6913 35.4266C39.5153 25.067 28.7304 17.7042 16.2984 14.6772Z" stroke="#6F1D77" stroke-width="5" stroke-linecap="round" stroke-linejoin="round"/>
</svg>
