<svg width="306" height="408" viewBox="0 0 306 408" fill="none" xmlns="http://www.w3.org/2000/svg">
<rect x="5" y="28" width="268" height="218" stroke="#6F1D77" stroke-width="6"/>
<rect x="80" y="3" width="222" height="166" stroke="#6F1D77" stroke-width="6"/>
<path d="M275 249L303 169" stroke="#6F1D77" stroke-width="5"/>
<path d="M274 29L301 5" stroke="#6F1D77" stroke-width="5"/>
<path d="M2 247L80 170" stroke="#6F1D77" stroke-width="5"/>
<path d="M5 25L78 3" stroke="#6F1D77" stroke-width="5"/>
<rect x="57" y="40" width="197" height="169" fill="#FF99FF" fill-opacity="0.43"/>
<rect x="62" y="45" width="187" height="159" stroke="#6F1D77" stroke-opacity="0.25" stroke-width="10"/>
<path d="M97.5 276L147.5 282.5L141.5 323.5L83 312.5L97.5 276Z" fill="#F7ECD8" stroke="#6F1D77" stroke-width="4"/>
<path d="M138.904 288.907L133.61 314.414L104.165 308.621L112.749 284.562L138.904 288.907Z" fill="#6F1D77" fill-opacity="0.25" stroke="#6F1D77"/>
<ellipse cx="76.5" cy="238" rx="38.5" ry="38" fill="#6F1D77"/>
<path d="M76.5 238L110.708 365.5H42.292L76.5 238Z" fill="#6F1D77"/>
<path d="M150.428 291.039C149.345 288.802 146.653 287.867 144.416 288.95C142.18 290.033 141.244 292.724 142.327 294.961L150.428 291.039ZM89 298.94L85.4506 301.706C92.2556 310.438 103.372 323.031 114.652 332.399C120.269 337.064 126.161 341.128 131.752 343.436C137.234 345.699 143.481 346.679 148.779 343.336L146.377 339.53L143.976 335.725C142.372 336.737 139.667 336.967 135.186 335.117C130.814 333.312 125.732 329.902 120.402 325.475C109.788 316.661 99.1181 304.602 92.5494 296.174L89 298.94ZM146.377 339.53L148.779 343.336C158.016 337.507 159.23 326.369 158.184 316.956C157.104 307.238 153.449 297.279 150.428 291.039L146.377 293L142.327 294.961C145.058 300.601 148.306 309.551 149.239 317.95C150.206 326.654 148.544 332.842 143.976 335.725L146.377 339.53Z" fill="#6F1D77"/>
<path d="M90.247 288.899C92.4003 287.658 93.1398 284.906 91.8988 282.753C90.6579 280.6 87.9063 279.86 85.753 281.101L90.247 288.899ZM74.1314 297.639L70.6767 294.755C57.1735 310.932 48.5912 318.69 43.7104 321.47C41.0279 322.999 40.8785 322.222 41.7822 322.653C43.0164 323.24 42.5 324.199 42.5 322.41H38H33.5C33.5 324.919 34.1241 328.974 37.913 330.778C41.3715 332.425 45.1911 330.985 48.1655 329.29C54.5986 325.625 64.0819 316.7 77.586 300.522L74.1314 297.639ZM38 322.41H42.5C42.5 323.119 42.2036 323.062 43.0549 321.936C43.7599 321.003 44.8992 319.797 46.4966 318.344C49.6725 315.456 54.1787 312.022 59.3308 308.415C69.604 301.223 81.9832 293.661 90.247 288.899L88 285L85.753 281.101C77.3501 285.944 64.7293 293.65 54.1692 301.043C48.9046 304.728 44.0359 308.417 40.4409 311.686C38.6529 313.312 37.0578 314.944 35.8748 316.51C34.8381 317.881 33.5 319.983 33.5 322.41H38Z" fill="#6F1D77"/>
</svg>
